<?xml version="1.0" standalone="no"?>
<!DOCTYPE svg PUBLIC "-//W3C//DTD SVG 20010904//EN"
 "http://www.w3.org/TR/2001/REC-SVG-20010904/DTD/svg10.dtd">
<svg version="1.0" xmlns="http://www.w3.org/2000/svg"
 width="500.000000pt" height="500.000000pt" viewBox="0 0 500.000000 500.000000"
 preserveAspectRatio="xMidYMid meet">
<metadata>
Created by potrace 1.11, written by Peter Selinger 2001-2013
</metadata>
<g transform="translate(0.000000,500.000000) scale(0.100000,-0.100000)"
fill="#000000" stroke="none">
<path d="M704 4358 l1 -643 143 -3 c78 -1 143 1 143 5 1 5 2 295 3 646 l1 637
-146 0 -146 0 1 -642z"/>
<path d="M1172 4358 l3 -643 212 0 212 0 33 -29 c18 -15 78 -69 132 -120 55
-50 111 -101 125 -114 14 -13 47 -42 72 -65 25 -23 87 -80 138 -127 97 -89
100 -91 197 -180 32 -30 101 -93 153 -140 52 -47 106 -96 121 -110 29 -27 192
-176 280 -255 30 -27 62 -57 70 -65 8 -8 65 -60 125 -115 61 -54 117 -106 126
-115 15 -14 145 -133 208 -189 14 -13 73 -67 130 -120 57 -53 112 -103 122
-112 27 -23 204 -185 274 -250 200 -185 239 -219 255 -219 8 -1 48 -2 88 -3
l72 -2 0 1808 0 1807 -1575 0 -1575 0 2 -642z m2825 62 l0 -270 -51 -1 c-58
-1 -983 0 -1007 0 -14 1 -16 32 -16 271 l0 270 537 0 537 0 0 -270z"/>
<path d="M1386 3493 c-1 -2 -201 -3 -444 -4 -243 0 -442 -4 -443 -7 0 -4 -1
-789 -2 -1745 l-2 -1737 2003 0 c1594 0 2002 3 2003 13 4 63 0 1139 -5 1144
-3 3 -89 6 -191 6 l-184 0 -44 41 c-24 23 -91 84 -148 136 -57 52 -126 115
-153 140 -76 70 -76 70 -181 165 -55 50 -111 101 -126 115 -14 14 -66 61 -115
105 -48 44 -102 93 -119 108 -16 16 -64 60 -105 97 -41 37 -87 79 -101 92 -14
12 -70 64 -125 114 -54 50 -123 113 -153 140 -30 27 -64 58 -75 69 -12 11 -73
67 -136 125 -63 57 -131 119 -150 136 -19 18 -49 45 -66 61 -17 15 -71 65
-120 110 -49 45 -100 91 -114 103 -22 19 -179 163 -254 234 -17 15 -67 60
-110 100 -43 39 -95 86 -114 104 -20 17 -45 32 -56 32 -12 1 -54 2 -94 3 -41
1 -75 1 -76 0z"/>
</g>
</svg>
